<mxfile host="app.diagrams.net" agent="Mozilla/5.0 (Windows NT 10.0; Win64; x64) AppleWebKit/537.36 (KHTML, like Gecko) Chrome/129.0.0.0 Safari/537.36" version="24.7.12">
  <diagram name="Page-1" id="-WI2hX_nxWuzGyNTRPeN">
    <mxGraphModel dx="1784" dy="541" grid="1" gridSize="10" guides="1" tooltips="1" connect="1" arrows="1" fold="1" page="1" pageScale="1" pageWidth="850" pageHeight="1100" math="0" shadow="0">
      <root>
        <mxCell id="0" />
        <mxCell id="1" parent="0" />
        <mxCell id="CP8myyx-6GAvuIw1cOrr-1" value=":Trader" style="shape=umlLifeline;perimeter=lifelinePerimeter;whiteSpace=wrap;html=1;container=1;dropTarget=0;collapsible=0;recursiveResize=0;outlineConnect=0;portConstraint=eastwest;newEdgeStyle={&quot;curved&quot;:0,&quot;rounded&quot;:0};" vertex="1" parent="1">
          <mxGeometry x="-280" y="200" width="120" height="470" as="geometry" />
        </mxCell>
        <mxCell id="CP8myyx-6GAvuIw1cOrr-7" value="" style="html=1;points=[[0,0,0,0,5],[0,1,0,0,-5],[1,0,0,0,5],[1,1,0,0,-5]];perimeter=orthogonalPerimeter;outlineConnect=0;targetShapes=umlLifeline;portConstraint=eastwest;newEdgeStyle={&quot;curved&quot;:0,&quot;rounded&quot;:0};" vertex="1" parent="CP8myyx-6GAvuIw1cOrr-1">
          <mxGeometry x="55" y="60" width="10" height="290" as="geometry" />
        </mxCell>
        <mxCell id="CP8myyx-6GAvuIw1cOrr-3" value=":BlockSpirit" style="shape=umlLifeline;perimeter=lifelinePerimeter;whiteSpace=wrap;html=1;container=1;dropTarget=0;collapsible=0;recursiveResize=0;outlineConnect=0;portConstraint=eastwest;newEdgeStyle={&quot;curved&quot;:0,&quot;rounded&quot;:0};" vertex="1" parent="1">
          <mxGeometry x="200" y="200" width="120" height="460" as="geometry" />
        </mxCell>
        <mxCell id="CP8myyx-6GAvuIw1cOrr-4" value=":Metamask" style="shape=umlLifeline;perimeter=lifelinePerimeter;whiteSpace=wrap;html=1;container=1;dropTarget=0;collapsible=0;recursiveResize=0;outlineConnect=0;portConstraint=eastwest;newEdgeStyle={&quot;curved&quot;:0,&quot;rounded&quot;:0};" vertex="1" parent="1">
          <mxGeometry x="-40" y="200" width="120" height="470" as="geometry" />
        </mxCell>
        <mxCell id="CP8myyx-6GAvuIw1cOrr-5" value=":Alchemy" style="shape=umlLifeline;perimeter=lifelinePerimeter;whiteSpace=wrap;html=1;container=1;dropTarget=0;collapsible=0;recursiveResize=0;outlineConnect=0;portConstraint=eastwest;newEdgeStyle={&quot;curved&quot;:0,&quot;rounded&quot;:0};" vertex="1" parent="1">
          <mxGeometry x="440" y="200" width="120" height="300" as="geometry" />
        </mxCell>
        <mxCell id="CP8myyx-6GAvuIw1cOrr-6" value="" style="html=1;points=[[0,0,0,0,5],[0,1,0,0,-5],[1,0,0,0,5],[1,1,0,0,-5]];perimeter=orthogonalPerimeter;outlineConnect=0;targetShapes=umlLifeline;portConstraint=eastwest;newEdgeStyle={&quot;curved&quot;:0,&quot;rounded&quot;:0};" vertex="1" parent="CP8myyx-6GAvuIw1cOrr-5">
          <mxGeometry x="55" y="130" width="10" height="60" as="geometry" />
        </mxCell>
        <mxCell id="CP8myyx-6GAvuIw1cOrr-8" value="3. Get Ethers" style="html=1;verticalAlign=bottom;endArrow=block;curved=0;rounded=0;" edge="1" parent="1">
          <mxGeometry x="-0.2217" width="80" relative="1" as="geometry">
            <mxPoint x="-220" y="349.41" as="sourcePoint" />
            <mxPoint x="499.5" y="349.41" as="targetPoint" />
            <mxPoint as="offset" />
          </mxGeometry>
        </mxCell>
        <mxCell id="CP8myyx-6GAvuIw1cOrr-9" value="4. Transfer Ethers the wallet" style="html=1;verticalAlign=bottom;endArrow=open;dashed=1;endSize=8;curved=0;rounded=0;" edge="1" parent="1" target="CP8myyx-6GAvuIw1cOrr-1">
          <mxGeometry x="0.25" relative="1" as="geometry">
            <mxPoint x="500.68" y="380" as="sourcePoint" />
            <mxPoint x="-209.99647058823535" y="380" as="targetPoint" />
            <mxPoint x="1" as="offset" />
          </mxGeometry>
        </mxCell>
        <mxCell id="CP8myyx-6GAvuIw1cOrr-10" value="name" style="endArrow=block;endFill=1;html=1;edgeStyle=orthogonalEdgeStyle;align=left;verticalAlign=top;rounded=0;" edge="1" parent="1">
          <mxGeometry x="-1" relative="1" as="geometry">
            <mxPoint x="60" y="110" as="sourcePoint" />
            <mxPoint x="220" y="110" as="targetPoint" />
          </mxGeometry>
        </mxCell>
        <mxCell id="CP8myyx-6GAvuIw1cOrr-11" value="1" style="edgeLabel;resizable=0;html=1;align=left;verticalAlign=bottom;" connectable="0" vertex="1" parent="CP8myyx-6GAvuIw1cOrr-10">
          <mxGeometry x="-1" relative="1" as="geometry" />
        </mxCell>
        <mxCell id="CP8myyx-6GAvuIw1cOrr-12" value="1. SignUp" style="html=1;verticalAlign=bottom;endArrow=block;curved=0;rounded=0;" edge="1" parent="1" target="CP8myyx-6GAvuIw1cOrr-4">
          <mxGeometry x="0.0021" width="80" relative="1" as="geometry">
            <mxPoint x="-220" y="280" as="sourcePoint" />
            <mxPoint x="-140" y="280" as="targetPoint" />
            <mxPoint as="offset" />
          </mxGeometry>
        </mxCell>
        <mxCell id="CP8myyx-6GAvuIw1cOrr-15" value="2. Successful Authentication" style="html=1;verticalAlign=bottom;endArrow=open;dashed=1;endSize=8;curved=0;rounded=0;" edge="1" parent="1">
          <mxGeometry relative="1" as="geometry">
            <mxPoint x="19.5" y="310" as="sourcePoint" />
            <mxPoint x="-220" y="310" as="targetPoint" />
          </mxGeometry>
        </mxCell>
        <mxCell id="CP8myyx-6GAvuIw1cOrr-17" value="alt" style="shape=umlFrame;whiteSpace=wrap;html=1;pointerEvents=0;" vertex="1" parent="1">
          <mxGeometry x="-300" y="320" width="840" height="80" as="geometry" />
        </mxCell>
        <mxCell id="CP8myyx-6GAvuIw1cOrr-19" value="[balance&amp;lt;0 eth]" style="text;html=1;align=center;verticalAlign=middle;resizable=0;points=[];autosize=1;strokeColor=none;fillColor=none;labelBackgroundColor=#E6E6E6;" vertex="1" parent="1">
          <mxGeometry x="-240" y="320" width="110" height="30" as="geometry" />
        </mxCell>
        <mxCell id="CP8myyx-6GAvuIw1cOrr-23" value="5. Connect to Blockspirit" style="endArrow=block;endFill=1;html=1;edgeStyle=orthogonalEdgeStyle;align=left;verticalAlign=top;rounded=0;" edge="1" parent="1" target="CP8myyx-6GAvuIw1cOrr-26">
          <mxGeometry x="-0.2944" y="20" relative="1" as="geometry">
            <mxPoint x="-210" y="430" as="sourcePoint" />
            <mxPoint x="240" y="430" as="targetPoint" />
            <Array as="points">
              <mxPoint x="-2" y="431" />
            </Array>
            <mxPoint x="-1" as="offset" />
          </mxGeometry>
        </mxCell>
        <mxCell id="CP8myyx-6GAvuIw1cOrr-25" value="" style="html=1;points=[[0,0,0,0,5],[0,1,0,0,-5],[1,0,0,0,5],[1,1,0,0,-5]];perimeter=orthogonalPerimeter;outlineConnect=0;targetShapes=umlLifeline;portConstraint=eastwest;newEdgeStyle={&quot;curved&quot;:0,&quot;rounded&quot;:0};" vertex="1" parent="1">
          <mxGeometry x="300" y="70" width="10" height="80" as="geometry" />
        </mxCell>
        <mxCell id="CP8myyx-6GAvuIw1cOrr-28" value="6.Display Unique Address Card" style="html=1;verticalAlign=bottom;endArrow=open;dashed=1;endSize=8;curved=0;rounded=0;" edge="1" parent="1" source="CP8myyx-6GAvuIw1cOrr-26" target="CP8myyx-6GAvuIw1cOrr-1">
          <mxGeometry x="0.0301" relative="1" as="geometry">
            <mxPoint x="255" y="460" as="sourcePoint" />
            <mxPoint x="175" y="460" as="targetPoint" />
            <mxPoint as="offset" />
          </mxGeometry>
        </mxCell>
        <mxCell id="CP8myyx-6GAvuIw1cOrr-29" value="" style="html=1;verticalAlign=bottom;endArrow=open;dashed=1;endSize=8;curved=0;rounded=0;" edge="1" parent="1" target="CP8myyx-6GAvuIw1cOrr-26">
          <mxGeometry x="0.0301" relative="1" as="geometry">
            <mxPoint x="255" y="460" as="sourcePoint" />
            <mxPoint x="-221" y="460" as="targetPoint" />
            <mxPoint as="offset" />
          </mxGeometry>
        </mxCell>
        <mxCell id="CP8myyx-6GAvuIw1cOrr-26" value="" style="html=1;points=[[0,0,0,0,5],[0,1,0,0,-5],[1,0,0,0,5],[1,1,0,0,-5]];perimeter=orthogonalPerimeter;outlineConnect=0;targetShapes=umlLifeline;portConstraint=eastwest;newEdgeStyle={&quot;curved&quot;:0,&quot;rounded&quot;:0};" vertex="1" parent="1">
          <mxGeometry x="255" y="410" width="10" height="110" as="geometry" />
        </mxCell>
        <mxCell id="CP8myyx-6GAvuIw1cOrr-32" value="7. Enter Sender&#39;s address,amount,message and keyword" style="endArrow=block;endFill=1;html=1;edgeStyle=orthogonalEdgeStyle;align=left;verticalAlign=top;rounded=0;" edge="1" parent="1" target="CP8myyx-6GAvuIw1cOrr-3">
          <mxGeometry x="-0.3795" y="20" relative="1" as="geometry">
            <mxPoint x="-220" y="500" as="sourcePoint" />
            <mxPoint x="220" y="501" as="targetPoint" />
            <Array as="points">
              <mxPoint x="-10" y="501" />
            </Array>
            <mxPoint x="1" as="offset" />
          </mxGeometry>
        </mxCell>
        <mxCell id="CP8myyx-6GAvuIw1cOrr-33" value="1" style="edgeLabel;resizable=0;html=1;align=left;verticalAlign=bottom;" connectable="0" vertex="1" parent="CP8myyx-6GAvuIw1cOrr-32">
          <mxGeometry x="-1" relative="1" as="geometry" />
        </mxCell>
      </root>
    </mxGraphModel>
  </diagram>
</mxfile>
